<?xml version="1.0" encoding="UTF-8"?>
<svg width="1336px" height="400px" viewBox="0 0 1336 400" version="1.1" xmlns="http://www.w3.org/2000/svg" xmlns:xlink="http://www.w3.org/1999/xlink">
    <title>Logo with text</title>
    <g id="Logo-with-text" stroke="none" stroke-width="1" fill="none" fill-rule="evenodd">
        <g id="UI" transform="translate(21.000000, 86.000000)">
            <path d="M1229,127.581843 C1229,138.087116 1227.2408,147.648556 1223.72241,156.266162 C1220.20401,164.883769 1215.17188,172.270289 1208.62603,178.425722 C1202.08018,184.581155 1194.18424,189.382393 1184.93822,192.829436 C1175.6922,196.276479 1165.42339,198 1154.1318,198 C1142.67655,198 1132.36683,196.276479 1123.20264,192.829436 C1114.03844,189.382393 1106.26524,184.581155 1099.88303,178.425722 C1093.50082,172.270289 1088.59143,164.883769 1085.15486,156.266162 C1081.71829,147.648556 1080,138.087116 1080,127.581843 L1080,19 L1121.72982,19 L1121.72982,124.134801 C1121.72982,128.895002 1122.34349,133.408987 1123.57084,137.676754 C1124.79819,141.944521 1126.68012,145.76089 1129.21664,149.12586 C1131.75316,152.49083 1135.10791,155.158184 1139.28089,157.127923 C1143.45387,159.097662 1148.486,160.082531 1154.37727,160.082531 C1160.26853,160.082531 1165.30066,159.097662 1169.47364,157.127923 C1173.64662,155.158184 1177.04228,152.49083 1179.66063,149.12586 C1182.27897,145.76089 1184.1609,141.944521 1185.30643,137.676754 C1186.45195,133.408987 1187.02471,128.895002 1187.02471,124.134801 L1187.02471,19 L1229,19 L1229,127.581843 Z" id="Path" fill="#EE4422" fill-rule="nonzero"></path>
            <polygon id="Path" fill="#EE4422" fill-rule="nonzero" points="1254 198 1254 19 1297 19 1297 198"></polygon>
            <g id="Heart" stroke="#EE4422" stroke-linejoin="round" stroke-width="8">
                <polygon id="T1" points="86 200 0 150 86 100"></polygon>
                <polygon id="T2" transform="translate(43.000000, 100.000000) scale(-1, 1) translate(-43.000000, -100.000000) " points="86 150 0 100 86 50"></polygon>
                <polygon id="T3" points="86 100 0 50 86 5.68434189e-14"></polygon>
                <polygon id="T4" transform="translate(129.000000, 50.000000) scale(-1, 1) translate(-129.000000, -50.000000) " points="172 100 86 50 172 0"></polygon>
                <polygon id="T5" points="172 150 86 100 172 50"></polygon>
                <polygon id="T6" transform="translate(129.000000, 150.000000) scale(-1, 1) translate(-129.000000, -150.000000) " points="172 200 86 150 172 100"></polygon>
                <polygon id="T7" points="172 250 86 200 172 150"></polygon>
                <polygon id="T8" transform="translate(215.000000, 200.000000) scale(-1, 1) translate(-215.000000, -200.000000) " points="258 250 172 200 258 150"></polygon>
                <polygon id="T9" points="258 200 172 150 258 100"></polygon>
                <polygon id="T10" transform="translate(215.000000, 100.000000) scale(-1, 1) translate(-215.000000, -100.000000) " points="258 150 172 100 258 50"></polygon>
                <polygon id="T11" points="258 100 172 50 258 5.68434189e-14"></polygon>
                <polygon id="T12" transform="translate(301.000000, 50.000000) scale(-1, 1) translate(-301.000000, -50.000000) " points="344 100 258 50 344 0"></polygon>
                <polygon id="T13" points="344 150 258 100 344 50"></polygon>
                <polygon id="T14" transform="translate(301.000000, 150.000000) scale(-1, 1) translate(-301.000000, -150.000000) " points="344 200 258 150 344 100"></polygon>
            </g>
        </g>
        <g id="Heart" transform="translate(411.512500, 103.875000)" fill="#3C3C3C" fill-rule="nonzero">
            <polygon id="Path" points="111.59915 179.125 111.59915 104.288842 42.3758495 104.288842 42.3758495 179.125 -0.5125 179.125 -0.5125 0.125 42.3758495 0.125 42.3758495 67.8820621 111.59915 67.8820621 111.59915 0.125 154.4875 0.125 154.4875 179.125"></polygon>
            <path d="M262.844643,90.7678571 C262.844643,85.3332707 260.923237,80.6651003 257.080425,76.7633459 C253.237613,72.8615915 247.473395,70.9107143 239.787771,70.9107143 C236.023384,70.9107143 232.572695,71.4332707 229.435706,72.4783835 C226.298716,73.5234962 223.553851,74.951817 221.201109,76.7633459 C218.848367,78.5748747 216.966173,80.6999373 215.554528,83.1385338 C214.142883,85.5771303 213.358635,88.1202381 213.201786,90.7678571 L262.844643,90.7678571 Z M312.4875,112.198585 C312.4875,113.947013 312.4875,115.69544 312.4875,117.443868 C312.4875,119.192296 312.398226,120.853302 312.219677,122.426887 L215.53567,122.426887 C215.892767,126.098585 217.008695,129.420597 218.883454,132.392925 C220.758213,135.365252 223.168618,137.944182 226.114668,140.129717 C229.060718,142.315252 232.363865,144.019969 236.024109,145.243868 C239.684353,146.467767 243.478508,147.079717 247.406575,147.079717 C254.369966,147.079717 260.262066,145.812107 265.082876,143.276887 C269.903685,140.741667 273.831752,137.463365 276.867076,133.441981 L307.398868,152.325 C301.149671,161.241981 292.891803,168.10456 282.625265,172.912736 C272.358727,177.720912 260.440615,180.125 246.87093,180.125 C236.872214,180.125 227.409144,178.595126 218.48172,175.535377 C209.554295,172.475629 201.742799,168.017138 195.04723,162.159906 C188.351662,156.302673 183.084481,149.090409 179.245689,140.523113 C175.406896,131.955818 173.4875,122.164623 173.4875,111.149528 C173.4875,100.484119 175.362259,90.8240566 179.111777,82.1693396 C182.861296,73.5146226 187.949928,66.1712264 194.377673,60.1391509 C200.805419,54.1070755 208.39373,49.4300314 217.142606,46.1080189 C225.891482,42.7860063 235.354552,41.125 245.531816,41.125 C255.351983,41.125 264.368682,42.7422956 272.581912,45.9768868 C280.795143,49.211478 287.847808,53.888522 293.739908,60.0080189 C299.632009,66.1275157 304.229632,73.5583333 307.532779,82.3004717 C310.835926,91.0426101 312.4875,101.008648 312.4875,112.198585 Z" id="Shape"></path>
            <path d="M411.872115,120.553571 L407.081664,120.553571 C402.975564,120.553571 398.831443,120.762155 394.649304,121.179322 C390.467164,121.596489 386.741258,122.389106 383.471585,123.557173 C380.201912,124.72524 377.502531,126.435624 375.373442,128.688325 C373.244352,130.941026 372.179808,133.902911 372.179808,137.57398 C372.179808,139.910114 372.674061,141.912515 373.662566,143.581182 C374.651072,145.24985 375.905714,146.584784 377.426492,147.585984 C378.94727,148.587185 380.696165,149.296369 382.673176,149.713535 C384.650188,150.130702 386.55116,150.339286 388.376094,150.339286 C395.979985,150.339286 401.796961,148.044868 405.827023,143.456032 C409.857084,138.867197 411.872115,132.651411 411.872115,124.808673 L411.872115,120.553571 Z M339.005395,63.3227186 C346.971711,55.9234791 356.250658,50.3740494 366.842237,46.6744297 C377.433816,42.9748099 388.251711,41.125 399.295921,41.125 C410.702237,41.125 420.343289,42.4903359 428.219079,45.2210076 C436.094868,47.9516793 442.476974,52.1798162 447.365395,57.9054183 C452.253816,63.6310203 455.829605,70.8540875 458.092763,79.5746198 C460.355921,88.2951521 461.4875,98.6452788 461.4875,110.625 L461.4875,171.140209 L420.750658,180.125 L420.750658,162.948194 L419.935921,162.948194 C416.495921,168.409537 411.290658,172.637674 404.320132,175.632605 C397.349605,178.627535 389.790658,180.125 381.643289,180.125 C376.211711,180.125 370.599079,179.420311 364.805395,178.010932 C359.011711,176.601553 353.715921,174.311312 348.918026,171.140209 C344.120132,167.969106 340.182237,163.74097 337.104342,158.455798 C334.026447,153.170627 332.4875,146.65225 332.4875,138.900665 C332.4875,129.387357 335.158026,121.723859 340.499079,115.910171 C345.840132,110.096483 352.720132,105.604087 361.139079,102.432985 C369.558026,99.2618821 378.9275,97.1478137 389.2475,96.0907795 C399.5675,95.0337452 409.615921,94.5052281 419.392763,94.5052281 L419.392763,92.3911597 C419.392763,85.872782 417.039079,81.0720849 412.331711,77.9890684 C407.624342,74.906052 401.830658,73.3645437 394.950658,73.3645437 C388.613816,73.3645437 382.503289,74.6858365 376.619079,77.3284221 C370.734868,79.9710076 365.710658,83.1421103 361.546447,86.84173 L339.005395,63.3227186 Z" id="Shape"></path>
            <path d="M568.599621,81.3046875 C566.621843,80.7617188 564.689015,80.3997396 562.801136,80.21875 C560.913258,80.0377604 559.070328,79.9472656 557.272348,79.9472656 C551.339015,79.9472656 546.349621,81.0332031 542.304167,83.2050781 C538.258712,85.3769531 535.022348,88.0013021 532.595076,91.078125 C530.167803,94.1549479 528.414773,97.5032552 527.335985,101.123047 C526.257197,104.742839 525.717803,107.910156 525.717803,110.625 L525.717803,170.570354 L481.4875,180.125 L481.4875,44.9257812 L524.099621,44.9257812 L524.099621,64.4726563 L524.639015,64.4726563 C528.055177,57.5950521 532.909722,51.984375 539.202652,47.640625 C545.495581,43.296875 552.777399,41.125 561.048106,41.125 C562.846086,41.125 564.599116,41.2154948 566.307197,41.3964844 C568.015278,41.577474 569.408712,41.8489583 570.4875,42.2109375 L568.599621,81.3046875 Z" id="Path"></path>
            <path d="M635.663971,78.0922387 L635.663971,128.185842 C635.663971,134.337689 636.811029,138.951573 639.105147,142.027496 C641.399265,145.103419 645.52018,146.641381 651.467892,146.641381 C653.507108,146.641381 655.673775,146.465614 657.967892,146.11408 C660.26201,145.762546 662.173775,145.235244 663.703186,144.532176 L664.21299,176.170242 C661.324101,177.224844 657.670507,178.147621 653.252206,178.938573 C648.833905,179.729524 644.415605,180.125 639.997304,180.125 C631.500572,180.125 624.363317,179.026456 618.585539,176.829368 C612.807761,174.63228 608.177042,171.468474 604.693382,167.337949 C601.209722,163.207423 598.703186,158.285946 597.173775,152.573518 C595.644363,146.861089 594.879657,140.489535 594.879657,133.458853 L594.879657,78.0922387 L574.4875,78.0922387 L574.4875,45.6632215 L594.624755,45.6632215 L594.624755,11.125 L635.663971,11.125 L635.663971,45.6632215 L665.4875,45.6632215 L665.4875,78.0922387 L635.663971,78.0922387 Z" id="Path"></path>
        </g>
    </g>
</svg>